# Blender v2.93.4 OBJ File: ''
# www.blender.org
mtllib tsuru.mtl
o Cube
v 0.066301 0.083057 0.305314
v 0.119931 -0.811362 -0.961869
v 0.024852 1.277259 1.290052
v 0.162613 -0.770216 0.791260
v -0.065956 0.083057 0.305314
v -0.124671 -0.811362 -0.961869
v -0.024508 1.277259 1.290052
v -0.162268 -0.770216 0.791260
v 0.066301 0.083057 0.305314
v -0.065956 0.083057 0.305314
v 0.119931 -0.811362 -0.961869
v -0.124671 -0.811362 -0.961869
v 0.066301 0.083057 0.305314
v -0.065956 0.083057 0.305314
v -0.006891 0.142377 -1.224144
v 0.007236 0.142377 -1.224144
v 0.020590 0.404368 -0.110822
v -0.020246 0.404368 -0.110822
v 0.066301 0.039449 -0.481716
v -0.065956 0.039449 -0.481716
v 0.066301 0.305779 -1.063291
v -0.065956 0.305779 -1.063291
v 0.028787 0.557547 -0.872471
v -0.028442 0.557547 -0.872471
v 0.025547 0.536275 -1.170520
v -0.025203 0.536275 -1.170520
v -0.065956 -0.530671 0.038131
v 0.000172 0.203842 -0.920370
v 0.000172 1.187912 1.248240
v 0.066301 -0.530671 0.038131
v 0.000172 0.203842 -0.920370
v 0.000172 -0.530671 0.038131
v -1.409548 0.019385 0.771010
v -1.409548 -0.015334 0.771010
v -0.076112 -0.262561 -0.683998
v -0.076112 -0.358429 -0.683998
v 1.409893 0.019385 0.771010
v 1.409893 -0.015334 0.771010
v 0.076456 -0.262561 -0.683998
v 0.076456 -0.358429 -0.683998
v 0.000172 -0.021123 -0.157224
v 0.000172 -0.116992 -0.157224
v 0.000172 -0.051637 0.290633
v 0.000172 -0.086356 0.290633
v 0.000172 -0.051637 0.290633
v 0.000172 -0.086356 0.290633
v -1.409548 0.002025 0.771010
v 1.409893 0.002025 0.771010
v 0.085022 -0.024848 0.664282
v -0.084677 -0.059567 0.664282
v -0.084677 -0.024848 0.664282
v 0.085022 -0.059567 0.664282
v 0.000172 -0.068997 0.290633
v 0.000172 -0.068997 0.290633
v 0.000172 -0.086356 0.290633
v 0.000172 -0.051637 0.290633
v 0.000172 -0.068997 0.290633
v 0.085022 -0.042208 0.664282
v -0.084677 -0.042208 0.664282
vt 0.625000 0.500000
vt 0.875000 0.500000
vt 0.875000 0.750000
vt 0.625000 0.750000
vt 0.375000 0.750000
vt 0.625000 1.000000
vt 0.375000 1.000000
vt 0.375000 0.875000
vt 0.375000 0.000000
vt 0.625000 0.000000
vt 0.625000 0.250000
vt 0.375000 0.250000
vt 0.375000 0.125000
vt 0.250000 0.625000
vt 0.375000 0.625000
vt 0.250000 0.750000
vt 0.375000 0.500000
vt 0.375000 0.375000
vt 0.875000 0.500000
vt 0.625000 0.500000
vt 0.875000 0.500000
vt 0.625000 0.500000
vt 0.375000 0.500000
vt 0.000000 0.000000
vt 0.000000 0.000000
vt 0.000000 0.000000
vt 0.000000 0.000000
vt 0.000000 0.000000
vt 0.000000 0.000000
vt 0.000000 0.000000
vt 0.000000 0.000000
vt 0.000000 0.000000
vt 0.000000 0.000000
vt 0.187500 0.250000
vt 0.000000 0.000000
vt 0.000000 0.000000
vt 0.000000 0.000000
vt 0.000000 0.000000
vt 0.125000 0.625000
vt 0.125000 0.750000
vt 0.125000 0.500000
vt 0.250000 0.500000
vt 0.375000 0.000000
vt 0.500000 0.000000
vt 0.625000 0.000000
vt 0.625000 0.250000
vt 0.375000 0.250000
vt 0.375000 0.375000
vt 0.625000 0.375000
vt 0.625000 0.500000
vt 0.375000 0.500000
vt 0.625000 0.750000
vt 0.500000 0.750000
vt 0.375000 0.750000
vt 0.500000 0.937500
vt 0.625000 0.937500
vt 0.625000 1.000000
vt 0.500000 1.000000
vt 0.250000 0.500000
vt 0.312500 0.750000
vt 0.250000 0.750000
vt 0.750000 0.500000
vt 0.875000 0.500000
vt 0.875000 0.750000
vt 0.812500 0.750000
vt 0.750000 0.750000
vt 0.687500 0.750000
vt 0.125000 0.500000
vt 0.187500 0.750000
vt 0.125000 0.750000
vt 0.500000 0.812500
vt 0.625000 0.812500
vt 0.625000 0.875000
vt 0.500000 0.875000
vt 0.500000 0.875000
vt 0.625000 0.875000
vt 0.625000 0.875000
vt 0.500000 0.875000
vt 0.375000 0.875000
vt 0.375000 0.875000
vt 0.375000 0.875000
vt 0.375000 0.812500
vt 0.375000 0.937500
vt 0.375000 1.000000
vn 0.0000 0.6362 -0.7715
vn 0.0000 -0.2818 0.9595
vn -0.9979 0.0502 -0.0412
vn -0.9751 -0.1516 0.1621
vn 0.9978 0.0507 -0.0425
vn 0.0000 0.9824 -0.1865
vn 0.0000 0.0000 1.0000
vn -0.9971 -0.0752 -0.0114
vn 0.0000 -0.7915 -0.6112
vn 0.0000 0.7015 -0.7126
vn 0.0000 0.2697 0.9629
vn 0.9968 -0.0792 -0.0121
vn 0.0000 -0.7128 0.7013
vn 0.0000 -0.6021 -0.7984
vn 0.0000 -0.1349 0.9909
vn -0.9808 -0.0939 0.1709
vn 0.0000 -0.9975 0.0712
vn 0.9808 -0.0939 0.1709
vn 0.9751 -0.1516 0.1621
vn 0.9808 -0.1816 -0.0715
vn -0.9819 -0.1770 -0.0679
vn 0.7372 0.0000 0.6756
vn 0.9897 0.0000 0.1433
vn -0.7372 0.0000 0.6756
vn -0.0803 0.0000 -0.9968
vn -0.0726 -0.9829 0.1691
vn -0.0706 0.9744 -0.2135
vn 0.0706 0.9744 -0.2135
vn 0.0726 -0.9829 0.1691
vn 0.9752 0.0000 -0.2214
vn -0.9897 0.0000 0.1433
vn 0.0803 0.0000 -0.9968
vn -0.9752 0.0000 -0.2214
vn -0.9776 0.1213 -0.1723
usemtl Material
s off
f 1/1/1 5/2/1 7/3/1 3/4/1
f 4/5/2 3/4/2 7/6/2 8/7/2 29/8/2
f 8/9/3 7/10/3 5/11/3 6/12/3 27/13/3
f 32/14/4 30/15/4 4/5/4 29/16/4
f 2/17/5 1/1/5 3/4/5 4/5/5 30/15/5
f 6/12/6 5/11/6 1/1/6 2/17/6 28/18/6
f 1/1/7 5/2/7 10/19/7 9/20/7
f 9/20/7 10/19/7 14/21/7 13/22/7
f 11/23/8 13/22/8 17/24/8 19/25/8 23/26/8 21/27/8
f 14/28/9 18/29/9 17/24/9 13/22/9
f 22/30/10 21/27/10 16/31/10 15/32/10
f 12/33/11 31/34/11 11/23/11 21/27/11 22/30/11
f 12/33/12 22/30/12 24/35/12 20/36/12 18/29/12 14/28/12
f 20/36/13 19/25/13 17/24/13 18/29/13
f 20/36/14 24/35/14 23/26/14 19/25/14
f 26/37/15 15/32/15 16/31/15 25/38/15
f 21/27/16 23/26/16 25/38/16 16/31/16
f 23/26/17 24/35/17 26/37/17 25/38/17
f 24/35/18 22/30/18 15/32/18 26/37/18
f 27/39/19 32/14/19 29/16/19 8/40/19
f 6/41/20 28/42/20 32/14/20 27/39/20
f 28/42/21 2/17/21 30/15/21 32/14/21
f 33/43/22 47/44/22 34/45/22 36/46/22 35/47/22
f 41/48/23 42/49/23 40/50/23 39/51/23
f 39/51/24 40/50/24 38/52/24 48/53/24 37/54/24
f 59/55/25 50/56/25 34/57/25 47/58/25
f 41/59/26 39/51/26 37/54/26 49/60/26 43/61/26
f 42/62/27 36/63/27 34/64/27 50/65/27 44/66/27
f 40/50/28 42/62/28 44/66/28 52/67/28 38/52/28
f 35/68/29 41/59/29 43/61/29 51/69/29 33/70/29
f 58/71/30 52/72/30 44/73/30 53/74/30
f 35/47/31 36/46/31 42/49/31 41/48/31
f 57/75/7 55/76/7 46/77/7 54/78/7
f 56/79/7 57/75/7 54/78/7 45/80/7
f 43/81/7 53/74/7 57/75/7 56/79/7
f 53/74/7 44/73/7 55/76/7 57/75/7
f 49/82/30 58/71/30 53/74/30 43/81/30
f 37/54/32 48/53/32 58/71/32 49/82/32
f 48/53/32 38/52/32 52/72/32 58/71/32
f 51/83/25 59/55/25 47/58/25 33/84/25
f 43/81/33 53/74/33 59/55/33 51/83/33
f 53/74/33 44/73/33 50/56/33 59/55/33
f 32/14/34 8/7/34 29/8/34
